<svg width="21" height="21" viewBox="0 0 21 21" fill="none" xmlns="http://www.w3.org/2000/svg">
<path d="M12.5221 2.78467L2.99414 6.16887V8.16223H4.88086V6.82102L12.7395 3.84574L12.5221 2.78467ZM15.1553 6.93176L4.88086 10.3566V8.90051H2.99414V18.006H5.5002C5.39766 16.5909 5.83652 15.3154 6.57891 14.2243C7.39922 13.0267 8.56816 12.0382 9.80273 11.2425C11.0332 10.4468 12.3293 9.84797 13.4039 9.44191C13.9412 9.24094 14.4252 9.08508 14.8189 8.98254C15.2168 8.8759 15.508 8.81848 15.75 8.81848H18.0059V6.93176H15.1553ZM17.0625 10.4263C16.8984 10.6396 16.677 10.9308 16.4678 11.263C16.0412 11.9234 15.6967 12.7437 15.7623 13.1538C15.8074 13.4532 15.9961 13.8224 16.2504 14.0931C16.5047 14.3638 16.8082 14.5238 17.0625 14.5238C17.3127 14.5238 17.6162 14.3638 17.8705 14.0931C18.1248 13.8224 18.3135 13.4532 18.3586 13.1538C18.4242 12.7437 18.0797 11.9234 17.6572 11.263C17.4439 10.9308 17.2266 10.6396 17.0625 10.4263ZM1.68164 18.7443V19.9747H7.3623L6.95215 18.7443H1.68164Z" fill="white"/>
</svg>
