<svg width="24" height="24" viewBox="0 0 24 24" fill="none" xmlns="http://www.w3.org/2000/svg">
<path d="M11 11L6 6" stroke="white" stroke-width="1.5"/>
<path d="M5 7.49996L7.5 4.99996L4.5 3.49996L3.5 4.49996L5 7.49996ZM19.975 8.97496C20.4551 8.49528 20.7854 7.88636 20.9257 7.22233C21.0659 6.55831 21.0101 5.86783 20.765 5.23496L19.343 6.65696H17.343V4.65696L18.765 3.23496C18.1321 2.9893 17.4414 2.93302 16.7771 3.07298C16.1127 3.21293 15.5034 3.54308 15.0234 4.0232C14.5434 4.50332 14.2134 5.11269 14.0736 5.77705C13.9338 6.44142 13.9902 7.1321 14.236 7.76496L7.766 14.236C7.13314 13.9902 6.44245 13.9337 5.77809 14.0735C5.11372 14.2133 4.50436 14.5434 4.02424 15.0234C3.54412 15.5034 3.21397 16.1127 3.07402 16.777C2.93406 17.4413 2.99034 18.132 3.236 18.765L4.657 17.343H6.657V19.343L5.235 20.765C5.86775 21.0106 6.55829 21.067 7.22251 20.9272C7.88672 20.7874 8.49596 20.4575 8.97603 19.9776C9.4561 19.4978 9.78628 18.8887 9.92636 18.2245C10.0664 17.5604 10.0104 16.8698 9.765 16.237L16.237 9.76496C16.8696 10.0096 17.5597 10.0652 18.2233 9.92499C18.8869 9.78474 19.4955 9.45468 19.975 8.97496Z" stroke="white" stroke-width="1.5" stroke-linejoin="round"/>
<path d="M11.797 14.4999L17.401 20.1039C17.5264 20.2295 17.6753 20.3292 17.8393 20.3972C18.0032 20.4652 18.179 20.5002 18.3565 20.5002C18.534 20.5002 18.7098 20.4652 18.8737 20.3972C19.0377 20.3292 19.1866 20.2295 19.312 20.1039L20.104 19.3119C20.2296 19.1865 20.3293 19.0375 20.3973 18.8736C20.4653 18.7096 20.5003 18.5339 20.5003 18.3564C20.5003 18.1789 20.4653 18.0031 20.3973 17.8392C20.3293 17.6752 20.2296 17.5263 20.104 17.4009L14.5 11.7969" stroke="white" stroke-width="1.5" stroke-linejoin="round"/>
</svg>
