<svg width="21" height="21" viewBox="0 0 21 21" fill="none" xmlns="http://www.w3.org/2000/svg">
<path d="M16.8656 8.02803L13.7812 4.94365L11.9219 6.78115L10.0625 4.94365L12.5344 2.4499C12.7094 2.2749 12.9062 2.14744 13.125 2.06753C13.3437 1.98761 13.5625 1.94736 13.7812 1.94678C14.0146 1.94678 14.2371 1.98703 14.4489 2.06753C14.6606 2.14803 14.8464 2.27549 15.0062 2.4499L16.8656 4.30928C17.1281 4.55719 17.3215 4.84536 17.4457 5.17378C17.57 5.50219 17.6318 5.83382 17.6312 6.16865C17.6307 6.50349 17.5688 6.83161 17.4457 7.15303C17.3227 7.47444 17.1293 7.76611 16.8656 8.02803ZM4.81249 12.053C4.54999 11.7905 4.41874 11.4808 4.41874 11.1238C4.41874 10.7668 4.54999 10.4567 4.81249 10.1937L6.95624 8.02803L8.81562 9.8874L6.64999 12.053C6.40208 12.3155 6.09962 12.4468 5.74262 12.4468C5.38562 12.4468 5.07558 12.3155 4.81249 12.053ZM3.87187 18.5499C3.71145 18.3749 3.58749 18.1818 3.49999 17.9707C3.41249 17.7595 3.36874 17.5369 3.36874 17.303C3.36874 17.0691 3.40899 16.8469 3.48949 16.6363C3.56999 16.4257 3.69745 16.2323 3.87187 16.0562L10.0625 9.8874L7.28437 7.0874C7.02187 6.83949 6.89062 6.53703 6.89062 6.18003C6.89062 5.82303 7.02187 5.51299 7.28437 5.2499C7.53229 4.9874 7.83854 4.85615 8.20312 4.85615C8.5677 4.85615 8.88124 4.9874 9.14374 5.2499L11.9219 8.02803L13.1687 6.78115L15.6187 9.2749C15.7937 9.4499 15.8812 9.65407 15.8812 9.8874C15.8812 10.1207 15.7937 10.3249 15.6187 10.4999C15.4437 10.6749 15.2396 10.7624 15.0062 10.7624C14.7729 10.7624 14.5687 10.6749 14.3937 10.4999L6.34374 18.5499C6.16874 18.7249 5.97537 18.8527 5.76362 18.9332C5.55187 19.0137 5.33691 19.0536 5.11874 19.053C4.90058 19.0524 4.68183 19.0087 4.46249 18.9218C4.24316 18.8349 4.04629 18.7109 3.87187 18.5499Z" fill="white"/>
</svg>
