<svg width="20" height="19" viewBox="0 0 20 19" fill="none" xmlns="http://www.w3.org/2000/svg">
<path d="M18.7379 17.5114C18.7379 16.6878 17.2221 14.3859 17.2221 14.3859C17.2221 14.3859 15.6833 16.6878 15.6833 17.5114C15.6833 18.3333 16.3675 19 17.2108 19C18.0537 19 18.7379 18.3333 18.7379 17.5114ZM7.7775 4.61411H4.72292V1.62904H5.55583V0H0V1.62904H0.833333V6.24274C0.833333 7.44222 1.82833 8.41411 3.05542 8.41411H7.7775V9.22863H9.44458V3.80041H7.7775V4.61411V4.61411ZM19.1658 11.3996V6.78589C19.1658 5.58683 18.1712 4.61452 16.9454 4.61452H12.2225V3.80083H10.5554V9.22946H12.2225V8.41452H15.2775V11.3996H14.4454V13.0286H20V11.3996H19.1658V11.3996Z" fill="white"/>
</svg>
